<svg width="199" height="183" viewBox="0 0 199 183" fill="none" xmlns="http://www.w3.org/2000/svg">
<path d="M29.2123 115.75L106.985 6.17451L163.58 114.94L29.2123 115.75Z" fill="#FFD369"/>
<path d="M27.8514 116.689L136.673 32.4112L165.483 115.049L27.8514 116.689Z" fill="#AC8E48"/>
<path d="M28.8613 156.352C28.8613 155.309 29.0605 154.33 29.459 153.416C29.8574 152.502 30.3965 151.705 31.0762 151.025C31.7676 150.334 32.5703 149.789 33.4844 149.391C34.3984 148.992 35.377 148.793 36.4199 148.793H47.9863V153.838H36.4199C36.0684 153.838 35.7402 153.902 35.4355 154.031C35.1309 154.16 34.8613 154.342 34.627 154.576C34.4043 154.799 34.2285 155.062 34.0996 155.367C33.9707 155.672 33.9062 156 33.9062 156.352C33.9062 156.703 33.9707 157.037 34.0996 157.354C34.2285 157.658 34.4043 157.928 34.627 158.162C34.8613 158.385 35.1309 158.561 35.4355 158.689C35.7402 158.818 36.0684 158.883 36.4199 158.883H41.4648C42.5078 158.883 43.4863 159.082 44.4004 159.48C45.3262 159.867 46.1289 160.406 46.8086 161.098C47.5 161.777 48.0391 162.58 48.4258 163.506C48.8242 164.42 49.0234 165.398 49.0234 166.441C49.0234 167.484 48.8242 168.463 48.4258 169.377C48.0391 170.291 47.5 171.094 46.8086 171.785C46.1289 172.465 45.3262 173.004 44.4004 173.402C43.4863 173.801 42.5078 174 41.4648 174H30.2676V168.955H41.4648C41.8164 168.955 42.1445 168.891 42.4492 168.762C42.7539 168.633 43.0176 168.457 43.2402 168.234C43.4746 168 43.6562 167.73 43.7852 167.426C43.9141 167.121 43.9785 166.793 43.9785 166.441C43.9785 166.09 43.9141 165.762 43.7852 165.457C43.6562 165.152 43.4746 164.889 43.2402 164.666C43.0176 164.432 42.7539 164.25 42.4492 164.121C42.1445 163.992 41.8164 163.928 41.4648 163.928H36.4199C35.377 163.928 34.3984 163.729 33.4844 163.33C32.5703 162.932 31.7676 162.393 31.0762 161.713C30.3965 161.021 29.8574 160.219 29.459 159.305C29.0605 158.379 28.8613 157.395 28.8613 156.352ZM56.6348 174H51.8359V147.686H56.6348V156C57.209 155.566 57.8008 155.262 58.4102 155.086C59.0195 154.898 59.6406 154.805 60.2734 154.805C61.4336 154.805 62.5234 155.027 63.543 155.473C64.5625 155.906 65.4473 156.51 66.1973 157.283C66.959 158.045 67.5566 158.941 67.9902 159.973C68.4355 160.992 68.6582 162.082 68.6582 163.242V174H63.8242V163.242H63.8594C63.8594 162.75 63.7656 162.287 63.5781 161.854C63.3906 161.408 63.1328 161.021 62.8047 160.693C62.4766 160.365 62.0957 160.107 61.6621 159.92C61.2285 159.732 60.7656 159.639 60.2734 159.639C59.7695 159.639 59.2949 159.732 58.8496 159.92C58.4043 160.107 58.0176 160.365 57.6895 160.693C57.3613 161.021 57.1035 161.408 56.916 161.854C56.7285 162.287 56.6348 162.75 56.6348 163.242V174ZM90.3145 174H89.1543L87.291 171.416C86.834 171.826 86.3477 172.213 85.832 172.576C85.3281 172.928 84.7949 173.238 84.2324 173.508C83.6699 173.766 83.0898 173.971 82.4922 174.123C81.9062 174.275 81.3086 174.352 80.6992 174.352C79.375 174.352 78.127 174.129 76.9551 173.684C75.7949 173.238 74.7754 172.594 73.8965 171.75C73.0293 170.895 72.3438 169.852 71.8398 168.621C71.3359 167.391 71.084 165.99 71.084 164.42C71.084 162.955 71.3359 161.613 71.8398 160.395C72.3438 159.164 73.0293 158.109 73.8965 157.23C74.7754 156.352 75.7949 155.672 76.9551 155.191C78.127 154.699 79.375 154.453 80.6992 154.453C81.3086 154.453 81.9121 154.529 82.5098 154.682C83.1074 154.834 83.6875 155.045 84.25 155.314C84.8125 155.584 85.3457 155.9 85.8496 156.264C86.3652 156.627 86.8457 157.02 87.291 157.441L89.1543 155.209H90.3145V174ZM85.4805 164.42C85.4805 163.764 85.3516 163.131 85.0938 162.521C84.8477 161.9 84.5078 161.355 84.0742 160.887C83.6406 160.406 83.1309 160.025 82.5449 159.744C81.9707 159.451 81.3555 159.305 80.6992 159.305C80.043 159.305 79.4219 159.416 78.8359 159.639C78.2617 159.861 77.7578 160.189 77.3242 160.623C76.9023 161.057 76.5684 161.596 76.3223 162.24C76.0762 162.873 75.9531 163.6 75.9531 164.42C75.9531 165.24 76.0762 165.973 76.3223 166.617C76.5684 167.25 76.9023 167.783 77.3242 168.217C77.7578 168.65 78.2617 168.979 78.8359 169.201C79.4219 169.424 80.043 169.535 80.6992 169.535C81.3555 169.535 81.9707 169.395 82.5449 169.113C83.1309 168.82 83.6406 168.439 84.0742 167.971C84.5078 167.49 84.8477 166.945 85.0938 166.336C85.3516 165.715 85.4805 165.076 85.4805 164.42ZM98.7871 174H93.9883V155.174H95.1484L96.7305 157.406C97.5039 156.703 98.3828 156.164 99.3672 155.789C100.352 155.402 101.371 155.209 102.426 155.209H106.662V159.99H102.426C101.922 159.99 101.447 160.084 101.002 160.271C100.557 160.459 100.17 160.717 99.8418 161.045C99.5137 161.373 99.2559 161.76 99.0684 162.205C98.8809 162.65 98.7871 163.125 98.7871 163.629V174ZM126.771 181.172H121.938V172.734C121.574 172.945 121.199 173.15 120.812 173.35C120.438 173.549 120.045 173.73 119.635 173.895C119.236 174.047 118.826 174.17 118.404 174.264C117.994 174.357 117.578 174.404 117.156 174.404C115.832 174.404 114.584 174.164 113.412 173.684C112.252 173.191 111.232 172.506 110.354 171.627C109.486 170.748 108.801 169.699 108.297 168.48C107.793 167.25 107.541 165.896 107.541 164.42C107.541 162.932 107.793 161.578 108.297 160.359C108.801 159.129 109.486 158.08 110.354 157.213C111.232 156.346 112.252 155.678 113.412 155.209C114.584 154.729 115.832 154.488 117.156 154.488C117.766 154.488 118.363 154.564 118.949 154.717C119.547 154.869 120.127 155.08 120.689 155.35C121.252 155.607 121.785 155.918 122.289 156.281C122.805 156.645 123.291 157.031 123.748 157.441L125.611 155.209H126.771V181.172ZM121.938 164.42C121.938 163.764 121.809 163.131 121.551 162.521C121.305 161.9 120.965 161.355 120.531 160.887C120.098 160.406 119.588 160.025 119.002 159.744C118.428 159.451 117.812 159.305 117.156 159.305C116.5 159.305 115.879 159.428 115.293 159.674C114.719 159.908 114.215 160.248 113.781 160.693C113.359 161.139 113.025 161.678 112.779 162.311C112.533 162.932 112.41 163.635 112.41 164.42C112.41 165.229 112.533 165.955 112.779 166.6C113.025 167.232 113.359 167.766 113.781 168.199C114.215 168.633 114.719 168.967 115.293 169.201C115.879 169.424 116.5 169.535 117.156 169.535C117.812 169.535 118.428 169.395 119.002 169.113C119.588 168.82 120.098 168.439 120.531 167.971C120.965 167.49 121.305 166.945 121.551 166.336C121.809 165.715 121.938 165.076 121.938 164.42ZM136.105 150.059C136.105 150.504 136.018 150.92 135.842 151.307C135.678 151.693 135.449 152.033 135.156 152.326C134.863 152.607 134.518 152.836 134.119 153.012C133.732 153.176 133.316 153.258 132.871 153.258C132.426 153.258 132.004 153.176 131.605 153.012C131.219 152.836 130.879 152.607 130.586 152.326C130.305 152.033 130.076 151.693 129.9 151.307C129.736 150.92 129.654 150.504 129.654 150.059C129.654 149.625 129.736 149.215 129.9 148.828C130.076 148.43 130.305 148.09 130.586 147.809C130.879 147.516 131.219 147.287 131.605 147.123C132.004 146.947 132.426 146.859 132.871 146.859C133.316 146.859 133.732 146.947 134.119 147.123C134.518 147.287 134.863 147.516 135.156 147.809C135.449 148.09 135.678 148.43 135.842 148.828C136.018 149.215 136.105 149.625 136.105 150.059ZM135.279 174H130.445V155.174H135.279V174ZM149.289 174H138.32V169.219H149.289C149.617 169.219 149.898 169.102 150.133 168.867C150.367 168.633 150.484 168.352 150.484 168.023C150.484 167.684 150.367 167.461 150.133 167.355C149.898 167.25 149.617 167.197 149.289 167.197H144.297C143.465 167.197 142.686 167.039 141.959 166.723C141.232 166.406 140.6 165.979 140.061 165.439C139.521 164.889 139.094 164.25 138.777 163.523C138.473 162.797 138.32 162.018 138.32 161.186C138.32 160.354 138.473 159.574 138.777 158.848C139.094 158.121 139.521 157.488 140.061 156.949C140.6 156.41 141.232 155.988 141.959 155.684C142.686 155.367 143.465 155.209 144.297 155.209H154.018V159.99H144.297C143.969 159.99 143.688 160.107 143.453 160.342C143.219 160.576 143.102 160.857 143.102 161.186C143.102 161.525 143.219 161.818 143.453 162.064C143.688 162.299 143.969 162.416 144.297 162.416H149.289C150.109 162.416 150.883 162.557 151.609 162.838C152.336 163.107 152.969 163.488 153.508 163.98C154.047 164.473 154.475 165.064 154.791 165.756C155.107 166.447 155.266 167.203 155.266 168.023C155.266 168.855 155.107 169.635 154.791 170.361C154.475 171.076 154.047 171.709 153.508 172.26C152.969 172.799 152.336 173.227 151.609 173.543C150.883 173.848 150.109 174 149.289 174ZM167.271 174C166.111 174 165.021 173.783 164.002 173.35C162.982 172.904 162.086 172.301 161.312 171.539C160.551 170.766 159.947 169.869 159.502 168.85C159.068 167.83 158.852 166.74 158.852 165.58V159.99H156.514V155.209H158.852V147.686H163.633V155.209H170.91V159.99H163.633V165.58C163.633 166.084 163.727 166.559 163.914 167.004C164.102 167.438 164.359 167.818 164.688 168.146C165.016 168.475 165.402 168.738 165.848 168.938C166.293 169.125 166.768 169.219 167.271 169.219H170.91V174H167.271Z" fill="black"/>
</svg>
